<mxfile host="drawio-plugin" modified="2021-09-29T20:14:57.960Z" agent="5.0 (Windows NT 6.2; Win64; x64) AppleWebKit/537.36 (KHTML, like Gecko) Chrome/84.0.4147.105 Safari/537.36" etag="xkGZIUJyYCjPO4JqjzZS" version="14.7.4" type="embed"><diagram id="C5RBs43oDa-KdzZeNtuy" name="Page-1"><mxGraphModel dx="489" dy="376" grid="1" gridSize="10" guides="1" tooltips="1" connect="1" arrows="1" fold="1" page="1" pageScale="1" pageWidth="827" pageHeight="1169" math="0" shadow="0"><root><mxCell id="WIyWlLk6GJQsqaUBKTNV-0"/><mxCell id="WIyWlLk6GJQsqaUBKTNV-1" parent="WIyWlLk6GJQsqaUBKTNV-0"/><mxCell id="D6r4INAEZ-xYz5GNRwte-25" value="Profiles" style="shape=table;startSize=30;container=1;collapsible=0;childLayout=tableLayout;fixedRows=1;rowLines=0;fontStyle=1;align=center;pointerEvents=1;fillColor=#60a917;strokeColor=#2D7600;fontColor=#ffffff;" parent="WIyWlLk6GJQsqaUBKTNV-1" vertex="1"><mxGeometry x="360" y="90" width="180" height="60" as="geometry"/></mxCell><mxCell id="D6r4INAEZ-xYz5GNRwte-26" value="" style="shape=partialRectangle;html=1;whiteSpace=wrap;collapsible=0;dropTarget=0;pointerEvents=1;fillColor=none;top=0;left=0;bottom=1;right=0;points=[[0,0.5],[1,0.5]];portConstraint=eastwest;" parent="D6r4INAEZ-xYz5GNRwte-25" vertex="1"><mxGeometry y="30" width="180" height="30" as="geometry"/></mxCell><mxCell id="D6r4INAEZ-xYz5GNRwte-27" value="1" style="shape=partialRectangle;html=1;whiteSpace=wrap;connectable=0;fillColor=none;top=0;left=0;bottom=0;right=0;overflow=hidden;pointerEvents=1;" parent="D6r4INAEZ-xYz5GNRwte-26" vertex="1"><mxGeometry width="40" height="30" as="geometry"><mxRectangle width="40" height="30" as="alternateBounds"/></mxGeometry></mxCell><mxCell id="D6r4INAEZ-xYz5GNRwte-28" value="Name" style="shape=partialRectangle;html=1;whiteSpace=wrap;connectable=0;fillColor=none;top=0;left=0;bottom=0;right=0;align=left;spacingLeft=6;overflow=hidden;pointerEvents=1;" parent="D6r4INAEZ-xYz5GNRwte-26" vertex="1"><mxGeometry x="40" width="140" height="30" as="geometry"><mxRectangle width="140" height="30" as="alternateBounds"/></mxGeometry></mxCell><mxCell id="D6r4INAEZ-xYz5GNRwte-35" value="Materials&#10;Все материалы в БД" style="shape=table;startSize=30;container=1;collapsible=0;childLayout=tableLayout;fixedRows=1;rowLines=0;fontStyle=1;align=center;pointerEvents=1;fillColor=#60a917;strokeColor=#2D7600;fontColor=#ffffff;" parent="WIyWlLk6GJQsqaUBKTNV-1" vertex="1"><mxGeometry x="360" y="250" width="180" height="150" as="geometry"/></mxCell><mxCell id="D6r4INAEZ-xYz5GNRwte-36" value="" style="shape=partialRectangle;html=1;whiteSpace=wrap;collapsible=0;dropTarget=0;pointerEvents=1;fillColor=none;top=0;left=0;bottom=1;right=0;points=[[0,0.5],[1,0.5]];portConstraint=eastwest;" parent="D6r4INAEZ-xYz5GNRwte-35" vertex="1"><mxGeometry y="30" width="180" height="30" as="geometry"/></mxCell><mxCell id="D6r4INAEZ-xYz5GNRwte-37" value="1" style="shape=partialRectangle;html=1;whiteSpace=wrap;connectable=0;fillColor=none;top=0;left=0;bottom=0;right=0;overflow=hidden;pointerEvents=1;" parent="D6r4INAEZ-xYz5GNRwte-36" vertex="1"><mxGeometry width="40" height="30" as="geometry"><mxRectangle width="40" height="30" as="alternateBounds"/></mxGeometry></mxCell><mxCell id="D6r4INAEZ-xYz5GNRwte-38" value="id" style="shape=partialRectangle;html=1;whiteSpace=wrap;connectable=0;fillColor=none;top=0;left=0;bottom=0;right=0;align=left;spacingLeft=6;overflow=hidden;pointerEvents=1;" parent="D6r4INAEZ-xYz5GNRwte-36" vertex="1"><mxGeometry x="40" width="140" height="30" as="geometry"><mxRectangle width="140" height="30" as="alternateBounds"/></mxGeometry></mxCell><mxCell id="D6r4INAEZ-xYz5GNRwte-39" value="" style="shape=partialRectangle;html=1;whiteSpace=wrap;collapsible=0;dropTarget=0;pointerEvents=1;fillColor=none;top=0;left=0;bottom=0;right=0;points=[[0,0.5],[1,0.5]];portConstraint=eastwest;" parent="D6r4INAEZ-xYz5GNRwte-35" vertex="1"><mxGeometry y="60" width="180" height="30" as="geometry"/></mxCell><mxCell id="D6r4INAEZ-xYz5GNRwte-40" value="2" style="shape=partialRectangle;html=1;whiteSpace=wrap;connectable=0;fillColor=none;top=0;left=0;bottom=0;right=0;overflow=hidden;pointerEvents=1;" parent="D6r4INAEZ-xYz5GNRwte-39" vertex="1"><mxGeometry width="40" height="30" as="geometry"><mxRectangle width="40" height="30" as="alternateBounds"/></mxGeometry></mxCell><mxCell id="D6r4INAEZ-xYz5GNRwte-41" value="ew" style="shape=partialRectangle;html=1;whiteSpace=wrap;connectable=0;fillColor=none;top=0;left=0;bottom=0;right=0;align=left;spacingLeft=6;overflow=hidden;pointerEvents=1;" parent="D6r4INAEZ-xYz5GNRwte-39" vertex="1"><mxGeometry x="40" width="140" height="30" as="geometry"><mxRectangle width="140" height="30" as="alternateBounds"/></mxGeometry></mxCell><mxCell id="D6r4INAEZ-xYz5GNRwte-42" value="" style="shape=partialRectangle;html=1;whiteSpace=wrap;collapsible=0;dropTarget=0;pointerEvents=1;fillColor=none;top=0;left=0;bottom=0;right=0;points=[[0,0.5],[1,0.5]];portConstraint=eastwest;" parent="D6r4INAEZ-xYz5GNRwte-35" vertex="1"><mxGeometry y="90" width="180" height="30" as="geometry"/></mxCell><mxCell id="D6r4INAEZ-xYz5GNRwte-43" value="3" style="shape=partialRectangle;html=1;whiteSpace=wrap;connectable=0;fillColor=none;top=0;left=0;bottom=0;right=0;overflow=hidden;pointerEvents=1;" parent="D6r4INAEZ-xYz5GNRwte-42" vertex="1"><mxGeometry width="40" height="30" as="geometry"><mxRectangle width="40" height="30" as="alternateBounds"/></mxGeometry></mxCell><mxCell id="D6r4INAEZ-xYz5GNRwte-44" value="Type" style="shape=partialRectangle;html=1;whiteSpace=wrap;connectable=0;fillColor=none;top=0;left=0;bottom=0;right=0;align=left;spacingLeft=6;overflow=hidden;pointerEvents=1;" parent="D6r4INAEZ-xYz5GNRwte-42" vertex="1"><mxGeometry x="40" width="140" height="30" as="geometry"><mxRectangle width="140" height="30" as="alternateBounds"/></mxGeometry></mxCell><mxCell id="D6r4INAEZ-xYz5GNRwte-128" value="" style="shape=partialRectangle;html=1;whiteSpace=wrap;collapsible=0;dropTarget=0;pointerEvents=1;fillColor=none;top=0;left=0;bottom=0;right=0;points=[[0,0.5],[1,0.5]];portConstraint=eastwest;" parent="D6r4INAEZ-xYz5GNRwte-35" vertex="1"><mxGeometry y="120" width="180" height="30" as="geometry"/></mxCell><mxCell id="D6r4INAEZ-xYz5GNRwte-129" value="4" style="shape=partialRectangle;html=1;whiteSpace=wrap;connectable=0;fillColor=none;top=0;left=0;bottom=0;right=0;overflow=hidden;pointerEvents=1;" parent="D6r4INAEZ-xYz5GNRwte-128" vertex="1"><mxGeometry width="40" height="30" as="geometry"><mxRectangle width="40" height="30" as="alternateBounds"/></mxGeometry></mxCell><mxCell id="D6r4INAEZ-xYz5GNRwte-130" value="Name" style="shape=partialRectangle;html=1;whiteSpace=wrap;connectable=0;fillColor=none;top=0;left=0;bottom=0;right=0;align=left;spacingLeft=6;overflow=hidden;pointerEvents=1;" parent="D6r4INAEZ-xYz5GNRwte-128" vertex="1"><mxGeometry x="40" width="140" height="30" as="geometry"><mxRectangle width="140" height="30" as="alternateBounds"/></mxGeometry></mxCell><mxCell id="D6r4INAEZ-xYz5GNRwte-45" value="Prof_mat_map&#10;Указание на материалы в профиле &#10;и подключенные к ним коррекции" style="shape=table;startSize=60;container=1;collapsible=0;childLayout=tableLayout;fixedRows=1;rowLines=0;fontStyle=1;align=center;pointerEvents=1;fillColor=#60a917;strokeColor=#2D7600;fontColor=#ffffff;" parent="WIyWlLk6GJQsqaUBKTNV-1" vertex="1"><mxGeometry x="30" y="60" width="230" height="120" as="geometry"/></mxCell><mxCell id="D6r4INAEZ-xYz5GNRwte-46" value="" style="shape=partialRectangle;html=1;whiteSpace=wrap;collapsible=0;dropTarget=0;pointerEvents=1;fillColor=none;top=0;left=0;bottom=1;right=0;points=[[0,0.5],[1,0.5]];portConstraint=eastwest;" parent="D6r4INAEZ-xYz5GNRwte-45" vertex="1"><mxGeometry y="60" width="230" height="30" as="geometry"/></mxCell><mxCell id="D6r4INAEZ-xYz5GNRwte-47" value="1" style="shape=partialRectangle;html=1;whiteSpace=wrap;connectable=0;fillColor=none;top=0;left=0;bottom=0;right=0;overflow=hidden;pointerEvents=1;" parent="D6r4INAEZ-xYz5GNRwte-46" vertex="1"><mxGeometry width="51" height="30" as="geometry"><mxRectangle width="51" height="30" as="alternateBounds"/></mxGeometry></mxCell><mxCell id="D6r4INAEZ-xYz5GNRwte-48" value="Profile" style="shape=partialRectangle;html=1;whiteSpace=wrap;connectable=0;fillColor=none;top=0;left=0;bottom=0;right=0;align=left;spacingLeft=6;overflow=hidden;pointerEvents=1;" parent="D6r4INAEZ-xYz5GNRwte-46" vertex="1"><mxGeometry x="51" width="179" height="30" as="geometry"><mxRectangle width="179" height="30" as="alternateBounds"/></mxGeometry></mxCell><mxCell id="D6r4INAEZ-xYz5GNRwte-49" value="" style="shape=partialRectangle;html=1;whiteSpace=wrap;collapsible=0;dropTarget=0;pointerEvents=1;fillColor=none;top=0;left=0;bottom=0;right=0;points=[[0,0.5],[1,0.5]];portConstraint=eastwest;" parent="D6r4INAEZ-xYz5GNRwte-45" vertex="1"><mxGeometry y="90" width="230" height="30" as="geometry"/></mxCell><mxCell id="D6r4INAEZ-xYz5GNRwte-50" value="2" style="shape=partialRectangle;html=1;whiteSpace=wrap;connectable=0;fillColor=none;top=0;left=0;bottom=0;right=0;overflow=hidden;pointerEvents=1;" parent="D6r4INAEZ-xYz5GNRwte-49" vertex="1"><mxGeometry width="51" height="30" as="geometry"><mxRectangle width="51" height="30" as="alternateBounds"/></mxGeometry></mxCell><mxCell id="D6r4INAEZ-xYz5GNRwte-51" value="Material" style="shape=partialRectangle;html=1;whiteSpace=wrap;connectable=0;fillColor=none;top=0;left=0;bottom=0;right=0;align=left;spacingLeft=6;overflow=hidden;pointerEvents=1;" parent="D6r4INAEZ-xYz5GNRwte-49" vertex="1"><mxGeometry x="51" width="179" height="30" as="geometry"><mxRectangle width="179" height="30" as="alternateBounds"/></mxGeometry></mxCell><mxCell id="D6r4INAEZ-xYz5GNRwte-57" value="Tg" style="shape=table;startSize=30;container=1;collapsible=0;childLayout=tableLayout;fixedRows=1;rowLines=0;fontStyle=1;align=center;pointerEvents=1;fillColor=#60a917;strokeColor=#2D7600;fontColor=#ffffff;" parent="WIyWlLk6GJQsqaUBKTNV-1" vertex="1"><mxGeometry x="600" y="235" width="180" height="120" as="geometry"/></mxCell><mxCell id="D6r4INAEZ-xYz5GNRwte-58" value="" style="shape=partialRectangle;html=1;whiteSpace=wrap;collapsible=0;dropTarget=0;pointerEvents=1;fillColor=none;top=0;left=0;bottom=1;right=0;points=[[0,0.5],[1,0.5]];portConstraint=eastwest;" parent="D6r4INAEZ-xYz5GNRwte-57" vertex="1"><mxGeometry y="30" width="180" height="30" as="geometry"/></mxCell><mxCell id="D6r4INAEZ-xYz5GNRwte-59" value="1" style="shape=partialRectangle;html=1;whiteSpace=wrap;connectable=0;fillColor=none;top=0;left=0;bottom=0;right=0;overflow=hidden;pointerEvents=1;" parent="D6r4INAEZ-xYz5GNRwte-58" vertex="1"><mxGeometry width="40" height="30" as="geometry"><mxRectangle width="40" height="30" as="alternateBounds"/></mxGeometry></mxCell><mxCell id="D6r4INAEZ-xYz5GNRwte-60" value="Epoxy" style="shape=partialRectangle;html=1;whiteSpace=wrap;connectable=0;fillColor=none;top=0;left=0;bottom=0;right=0;align=left;spacingLeft=6;overflow=hidden;pointerEvents=1;" parent="D6r4INAEZ-xYz5GNRwte-58" vertex="1"><mxGeometry x="40" width="140" height="30" as="geometry"><mxRectangle width="140" height="30" as="alternateBounds"/></mxGeometry></mxCell><mxCell id="D6r4INAEZ-xYz5GNRwte-61" value="" style="shape=partialRectangle;html=1;whiteSpace=wrap;collapsible=0;dropTarget=0;pointerEvents=1;fillColor=none;top=0;left=0;bottom=0;right=0;points=[[0,0.5],[1,0.5]];portConstraint=eastwest;" parent="D6r4INAEZ-xYz5GNRwte-57" vertex="1"><mxGeometry y="60" width="180" height="30" as="geometry"/></mxCell><mxCell id="D6r4INAEZ-xYz5GNRwte-62" value="2" style="shape=partialRectangle;html=1;whiteSpace=wrap;connectable=0;fillColor=none;top=0;left=0;bottom=0;right=0;overflow=hidden;pointerEvents=1;" parent="D6r4INAEZ-xYz5GNRwte-61" vertex="1"><mxGeometry width="40" height="30" as="geometry"><mxRectangle width="40" height="30" as="alternateBounds"/></mxGeometry></mxCell><mxCell id="D6r4INAEZ-xYz5GNRwte-63" value="Amine" style="shape=partialRectangle;html=1;whiteSpace=wrap;connectable=0;fillColor=none;top=0;left=0;bottom=0;right=0;align=left;spacingLeft=6;overflow=hidden;pointerEvents=1;" parent="D6r4INAEZ-xYz5GNRwte-61" vertex="1"><mxGeometry x="40" width="140" height="30" as="geometry"><mxRectangle width="140" height="30" as="alternateBounds"/></mxGeometry></mxCell><mxCell id="D6r4INAEZ-xYz5GNRwte-64" value="" style="shape=partialRectangle;html=1;whiteSpace=wrap;collapsible=0;dropTarget=0;pointerEvents=1;fillColor=none;top=0;left=0;bottom=0;right=0;points=[[0,0.5],[1,0.5]];portConstraint=eastwest;" parent="D6r4INAEZ-xYz5GNRwte-57" vertex="1"><mxGeometry y="90" width="180" height="30" as="geometry"/></mxCell><mxCell id="D6r4INAEZ-xYz5GNRwte-65" value="3" style="shape=partialRectangle;html=1;whiteSpace=wrap;connectable=0;fillColor=none;top=0;left=0;bottom=0;right=0;overflow=hidden;pointerEvents=1;" parent="D6r4INAEZ-xYz5GNRwte-64" vertex="1"><mxGeometry width="40" height="30" as="geometry"><mxRectangle width="40" height="30" as="alternateBounds"/></mxGeometry></mxCell><mxCell id="D6r4INAEZ-xYz5GNRwte-66" value="Value" style="shape=partialRectangle;html=1;whiteSpace=wrap;connectable=0;fillColor=none;top=0;left=0;bottom=0;right=0;align=left;spacingLeft=6;overflow=hidden;pointerEvents=1;" parent="D6r4INAEZ-xYz5GNRwte-64" vertex="1"><mxGeometry x="40" width="140" height="30" as="geometry"><mxRectangle width="140" height="30" as="alternateBounds"/></mxGeometry></mxCell><mxCell id="D6r4INAEZ-xYz5GNRwte-69" value="Corrections&#10;Одна функция" style="shape=table;startSize=30;container=1;collapsible=0;childLayout=tableLayout;fixedRows=1;rowLines=0;fontStyle=1;align=center;pointerEvents=1;fillColor=#60a917;strokeColor=#2D7600;fontColor=#ffffff;" parent="WIyWlLk6GJQsqaUBKTNV-1" vertex="1"><mxGeometry x="360" y="580" width="180" height="180" as="geometry"/></mxCell><mxCell id="D6r4INAEZ-xYz5GNRwte-70" value="" style="shape=partialRectangle;html=1;whiteSpace=wrap;collapsible=0;dropTarget=0;pointerEvents=1;fillColor=none;top=0;left=0;bottom=1;right=0;points=[[0,0.5],[1,0.5]];portConstraint=eastwest;" parent="D6r4INAEZ-xYz5GNRwte-69" vertex="1"><mxGeometry y="30" width="180" height="30" as="geometry"/></mxCell><mxCell id="D6r4INAEZ-xYz5GNRwte-71" value="1" style="shape=partialRectangle;html=1;whiteSpace=wrap;connectable=0;fillColor=none;top=0;left=0;bottom=0;right=0;overflow=hidden;pointerEvents=1;" parent="D6r4INAEZ-xYz5GNRwte-70" vertex="1"><mxGeometry width="40" height="30" as="geometry"><mxRectangle width="40" height="30" as="alternateBounds"/></mxGeometry></mxCell><mxCell id="D6r4INAEZ-xYz5GNRwte-72" value="id" style="shape=partialRectangle;html=1;whiteSpace=wrap;connectable=0;fillColor=none;top=0;left=0;bottom=0;right=0;align=left;spacingLeft=6;overflow=hidden;pointerEvents=1;" parent="D6r4INAEZ-xYz5GNRwte-70" vertex="1"><mxGeometry x="40" width="140" height="30" as="geometry"><mxRectangle width="140" height="30" as="alternateBounds"/></mxGeometry></mxCell><mxCell id="D6r4INAEZ-xYz5GNRwte-73" value="" style="shape=partialRectangle;html=1;whiteSpace=wrap;collapsible=0;dropTarget=0;pointerEvents=1;fillColor=none;top=0;left=0;bottom=0;right=0;points=[[0,0.5],[1,0.5]];portConstraint=eastwest;" parent="D6r4INAEZ-xYz5GNRwte-69" vertex="1"><mxGeometry y="60" width="180" height="30" as="geometry"/></mxCell><mxCell id="D6r4INAEZ-xYz5GNRwte-74" value="2" style="shape=partialRectangle;html=1;whiteSpace=wrap;connectable=0;fillColor=none;top=0;left=0;bottom=0;right=0;overflow=hidden;pointerEvents=1;" parent="D6r4INAEZ-xYz5GNRwte-73" vertex="1"><mxGeometry width="40" height="30" as="geometry"><mxRectangle width="40" height="30" as="alternateBounds"/></mxGeometry></mxCell><mxCell id="D6r4INAEZ-xYz5GNRwte-75" value="Name" style="shape=partialRectangle;html=1;whiteSpace=wrap;connectable=0;fillColor=none;top=0;left=0;bottom=0;right=0;align=left;spacingLeft=6;overflow=hidden;pointerEvents=1;" parent="D6r4INAEZ-xYz5GNRwte-73" vertex="1"><mxGeometry x="40" width="140" height="30" as="geometry"><mxRectangle width="140" height="30" as="alternateBounds"/></mxGeometry></mxCell><mxCell id="D6r4INAEZ-xYz5GNRwte-76" value="" style="shape=partialRectangle;html=1;whiteSpace=wrap;collapsible=0;dropTarget=0;pointerEvents=1;fillColor=none;top=0;left=0;bottom=0;right=0;points=[[0,0.5],[1,0.5]];portConstraint=eastwest;" parent="D6r4INAEZ-xYz5GNRwte-69" vertex="1"><mxGeometry y="90" width="180" height="30" as="geometry"/></mxCell><mxCell id="D6r4INAEZ-xYz5GNRwte-77" value="3" style="shape=partialRectangle;html=1;whiteSpace=wrap;connectable=0;fillColor=none;top=0;left=0;bottom=0;right=0;overflow=hidden;pointerEvents=1;" parent="D6r4INAEZ-xYz5GNRwte-76" vertex="1"><mxGeometry width="40" height="30" as="geometry"><mxRectangle width="40" height="30" as="alternateBounds"/></mxGeometry></mxCell><mxCell id="D6r4INAEZ-xYz5GNRwte-78" value="Comment" style="shape=partialRectangle;html=1;whiteSpace=wrap;connectable=0;fillColor=none;top=0;left=0;bottom=0;right=0;align=left;spacingLeft=6;overflow=hidden;pointerEvents=1;" parent="D6r4INAEZ-xYz5GNRwte-76" vertex="1"><mxGeometry x="40" width="140" height="30" as="geometry"><mxRectangle width="140" height="30" as="alternateBounds"/></mxGeometry></mxCell><mxCell id="D6r4INAEZ-xYz5GNRwte-79" value="" style="shape=partialRectangle;html=1;whiteSpace=wrap;collapsible=0;dropTarget=0;pointerEvents=1;fillColor=none;top=0;left=0;bottom=0;right=0;points=[[0,0.5],[1,0.5]];portConstraint=eastwest;" parent="D6r4INAEZ-xYz5GNRwte-69" vertex="1"><mxGeometry y="120" width="180" height="30" as="geometry"/></mxCell><mxCell id="D6r4INAEZ-xYz5GNRwte-80" value="4" style="shape=partialRectangle;html=1;whiteSpace=wrap;connectable=0;fillColor=none;top=0;left=0;bottom=0;right=0;overflow=hidden;pointerEvents=1;" parent="D6r4INAEZ-xYz5GNRwte-79" vertex="1"><mxGeometry width="40" height="30" as="geometry"><mxRectangle width="40" height="30" as="alternateBounds"/></mxGeometry></mxCell><mxCell id="D6r4INAEZ-xYz5GNRwte-81" value="k_e" style="shape=partialRectangle;html=1;whiteSpace=wrap;connectable=0;fillColor=none;top=0;left=0;bottom=0;right=0;align=left;spacingLeft=6;overflow=hidden;pointerEvents=1;" parent="D6r4INAEZ-xYz5GNRwte-79" vertex="1"><mxGeometry x="40" width="140" height="30" as="geometry"><mxRectangle width="140" height="30" as="alternateBounds"/></mxGeometry></mxCell><mxCell id="D6r4INAEZ-xYz5GNRwte-82" value="" style="shape=partialRectangle;html=1;whiteSpace=wrap;collapsible=0;dropTarget=0;pointerEvents=1;fillColor=none;top=0;left=0;bottom=0;right=0;points=[[0,0.5],[1,0.5]];portConstraint=eastwest;" parent="D6r4INAEZ-xYz5GNRwte-69" vertex="1"><mxGeometry y="150" width="180" height="30" as="geometry"/></mxCell><mxCell id="D6r4INAEZ-xYz5GNRwte-83" value="5" style="shape=partialRectangle;html=1;whiteSpace=wrap;connectable=0;fillColor=none;top=0;left=0;bottom=0;right=0;overflow=hidden;pointerEvents=1;" parent="D6r4INAEZ-xYz5GNRwte-82" vertex="1"><mxGeometry width="40" height="30" as="geometry"><mxRectangle width="40" height="30" as="alternateBounds"/></mxGeometry></mxCell><mxCell id="D6r4INAEZ-xYz5GNRwte-84" value="k_exp" style="shape=partialRectangle;html=1;whiteSpace=wrap;connectable=0;fillColor=none;top=0;left=0;bottom=0;right=0;align=left;spacingLeft=6;overflow=hidden;pointerEvents=1;" parent="D6r4INAEZ-xYz5GNRwte-82" vertex="1"><mxGeometry x="40" width="140" height="30" as="geometry"><mxRectangle width="140" height="30" as="alternateBounds"/></mxGeometry></mxCell><mxCell id="D6r4INAEZ-xYz5GNRwte-85" value="corr_poly_coef_map&#10;Полиномиальные коэффициенты&#10;для коррекции" style="shape=table;startSize=60;container=1;collapsible=0;childLayout=tableLayout;fixedRows=0;rowLines=0;fontStyle=1;align=center;pointerEvents=1;horizontal=1;columnLines=1;fillColor=#60a917;strokeColor=#2D7600;fontColor=#ffffff;" parent="WIyWlLk6GJQsqaUBKTNV-1" vertex="1"><mxGeometry x="590" y="550" width="220" height="150" as="geometry"/></mxCell><mxCell id="D6r4INAEZ-xYz5GNRwte-86" value="" style="shape=partialRectangle;html=1;whiteSpace=wrap;collapsible=0;dropTarget=0;pointerEvents=1;fillColor=none;top=0;left=0;bottom=1;right=0;points=[[0,0.5],[1,0.5]];portConstraint=eastwest;" parent="D6r4INAEZ-xYz5GNRwte-85" vertex="1"><mxGeometry y="60" width="220" height="30" as="geometry"/></mxCell><mxCell id="D6r4INAEZ-xYz5GNRwte-87" value="1" style="shape=partialRectangle;html=1;whiteSpace=wrap;connectable=0;fillColor=none;top=0;left=0;bottom=0;right=0;overflow=hidden;pointerEvents=1;" parent="D6r4INAEZ-xYz5GNRwte-86" vertex="1"><mxGeometry width="50" height="30" as="geometry"><mxRectangle width="50" height="30" as="alternateBounds"/></mxGeometry></mxCell><mxCell id="D6r4INAEZ-xYz5GNRwte-88" value="&lt;span style=&quot;font-weight: 700 ; text-align: center&quot;&gt;Correction&lt;br&gt;&lt;/span&gt;" style="shape=partialRectangle;html=1;whiteSpace=wrap;connectable=0;fillColor=none;top=0;left=0;bottom=0;right=0;align=left;spacingLeft=6;overflow=hidden;pointerEvents=1;" parent="D6r4INAEZ-xYz5GNRwte-86" vertex="1"><mxGeometry x="50" width="170" height="30" as="geometry"><mxRectangle width="170" height="30" as="alternateBounds"/></mxGeometry></mxCell><mxCell id="D6r4INAEZ-xYz5GNRwte-89" value="" style="shape=partialRectangle;html=1;whiteSpace=wrap;collapsible=0;dropTarget=0;pointerEvents=1;fillColor=none;top=0;left=0;bottom=0;right=0;points=[[0,0.5],[1,0.5]];portConstraint=eastwest;" parent="D6r4INAEZ-xYz5GNRwte-85" vertex="1"><mxGeometry y="90" width="220" height="30" as="geometry"/></mxCell><mxCell id="D6r4INAEZ-xYz5GNRwte-90" value="2" style="shape=partialRectangle;html=1;whiteSpace=wrap;connectable=0;fillColor=none;top=0;left=0;bottom=0;right=0;overflow=hidden;pointerEvents=1;" parent="D6r4INAEZ-xYz5GNRwte-89" vertex="1"><mxGeometry width="50" height="30" as="geometry"><mxRectangle width="50" height="30" as="alternateBounds"/></mxGeometry></mxCell><mxCell id="D6r4INAEZ-xYz5GNRwte-91" value="Power" style="shape=partialRectangle;html=1;whiteSpace=wrap;connectable=0;fillColor=none;top=0;left=0;bottom=0;right=0;align=left;spacingLeft=6;overflow=hidden;pointerEvents=1;" parent="D6r4INAEZ-xYz5GNRwte-89" vertex="1"><mxGeometry x="50" width="170" height="30" as="geometry"><mxRectangle width="170" height="30" as="alternateBounds"/></mxGeometry></mxCell><mxCell id="D6r4INAEZ-xYz5GNRwte-92" value="" style="shape=partialRectangle;html=1;whiteSpace=wrap;collapsible=0;dropTarget=0;pointerEvents=1;fillColor=none;top=0;left=0;bottom=0;right=0;points=[[0,0.5],[1,0.5]];portConstraint=eastwest;" parent="D6r4INAEZ-xYz5GNRwte-85" vertex="1"><mxGeometry y="120" width="220" height="30" as="geometry"/></mxCell><mxCell id="D6r4INAEZ-xYz5GNRwte-93" value="3" style="shape=partialRectangle;html=1;whiteSpace=wrap;connectable=0;fillColor=none;top=0;left=0;bottom=0;right=0;overflow=hidden;pointerEvents=1;" parent="D6r4INAEZ-xYz5GNRwte-92" vertex="1"><mxGeometry width="50" height="30" as="geometry"><mxRectangle width="50" height="30" as="alternateBounds"/></mxGeometry></mxCell><mxCell id="D6r4INAEZ-xYz5GNRwte-94" value="coef" style="shape=partialRectangle;html=1;whiteSpace=wrap;connectable=0;fillColor=none;top=0;left=0;bottom=0;right=0;align=left;spacingLeft=6;overflow=hidden;pointerEvents=1;" parent="D6r4INAEZ-xYz5GNRwte-92" vertex="1"><mxGeometry x="50" width="170" height="30" as="geometry"><mxRectangle width="170" height="30" as="alternateBounds"/></mxGeometry></mxCell><mxCell id="D6r4INAEZ-xYz5GNRwte-96" value="CorrectionMaterial_map&#10;Собирание всех коррекций&#10;для одного материала" style="shape=table;startSize=60;container=1;collapsible=0;childLayout=tableLayout;fixedRows=1;rowLines=0;fontStyle=1;align=center;pointerEvents=1;fillColor=#60a917;strokeColor=#2D7600;fontColor=#ffffff;" parent="WIyWlLk6GJQsqaUBKTNV-1" vertex="1"><mxGeometry x="80" y="400" width="180" height="250" as="geometry"/></mxCell><mxCell id="D6r4INAEZ-xYz5GNRwte-149" value="" style="shape=partialRectangle;html=1;whiteSpace=wrap;collapsible=0;dropTarget=0;pointerEvents=1;fillColor=none;top=0;left=0;bottom=1;right=0;points=[[0,0.5],[1,0.5]];portConstraint=eastwest;" parent="D6r4INAEZ-xYz5GNRwte-96" vertex="1"><mxGeometry y="60" width="180" height="30" as="geometry"/></mxCell><mxCell id="D6r4INAEZ-xYz5GNRwte-150" value="1" style="shape=partialRectangle;html=1;whiteSpace=wrap;connectable=0;fillColor=none;top=0;left=0;bottom=0;right=0;overflow=hidden;pointerEvents=1;" parent="D6r4INAEZ-xYz5GNRwte-149" vertex="1"><mxGeometry width="40" height="30" as="geometry"><mxRectangle width="40" height="30" as="alternateBounds"/></mxGeometry></mxCell><mxCell id="D6r4INAEZ-xYz5GNRwte-151" value="id" style="shape=partialRectangle;html=1;whiteSpace=wrap;connectable=0;fillColor=none;top=0;left=0;bottom=0;right=0;align=left;spacingLeft=6;overflow=hidden;pointerEvents=1;" parent="D6r4INAEZ-xYz5GNRwte-149" vertex="1"><mxGeometry x="40" width="140" height="30" as="geometry"><mxRectangle width="140" height="30" as="alternateBounds"/></mxGeometry></mxCell><mxCell id="D6r4INAEZ-xYz5GNRwte-100" value="" style="shape=partialRectangle;html=1;whiteSpace=wrap;collapsible=0;dropTarget=0;pointerEvents=1;fillColor=none;top=0;left=0;bottom=0;right=0;points=[[0,0.5],[1,0.5]];portConstraint=eastwest;" parent="D6r4INAEZ-xYz5GNRwte-96" vertex="1"><mxGeometry y="90" width="180" height="30" as="geometry"/></mxCell><mxCell id="D6r4INAEZ-xYz5GNRwte-101" value="2" style="shape=partialRectangle;html=1;whiteSpace=wrap;connectable=0;fillColor=none;top=0;left=0;bottom=0;right=0;overflow=hidden;pointerEvents=1;" parent="D6r4INAEZ-xYz5GNRwte-100" vertex="1"><mxGeometry width="40" height="30" as="geometry"><mxRectangle width="40" height="30" as="alternateBounds"/></mxGeometry></mxCell><mxCell id="D6r4INAEZ-xYz5GNRwte-102" value="Amine" style="shape=partialRectangle;html=1;whiteSpace=wrap;connectable=0;fillColor=none;top=0;left=0;bottom=0;right=0;align=left;spacingLeft=6;overflow=hidden;pointerEvents=1;" parent="D6r4INAEZ-xYz5GNRwte-100" vertex="1"><mxGeometry x="40" width="140" height="30" as="geometry"><mxRectangle width="140" height="30" as="alternateBounds"/></mxGeometry></mxCell><mxCell id="D6r4INAEZ-xYz5GNRwte-103" value="" style="shape=partialRectangle;html=1;whiteSpace=wrap;collapsible=0;dropTarget=0;pointerEvents=1;fillColor=none;top=0;left=0;bottom=0;right=0;points=[[0,0.5],[1,0.5]];portConstraint=eastwest;" parent="D6r4INAEZ-xYz5GNRwte-96" vertex="1"><mxGeometry y="120" width="180" height="30" as="geometry"/></mxCell><mxCell id="D6r4INAEZ-xYz5GNRwte-104" value="3" style="shape=partialRectangle;html=1;whiteSpace=wrap;connectable=0;fillColor=none;top=0;left=0;bottom=0;right=0;overflow=hidden;pointerEvents=1;" parent="D6r4INAEZ-xYz5GNRwte-103" vertex="1"><mxGeometry width="40" height="30" as="geometry"><mxRectangle width="40" height="30" as="alternateBounds"/></mxGeometry></mxCell><mxCell id="D6r4INAEZ-xYz5GNRwte-105" value="Epoxy" style="shape=partialRectangle;html=1;whiteSpace=wrap;connectable=0;fillColor=none;top=0;left=0;bottom=0;right=0;align=left;spacingLeft=6;overflow=hidden;pointerEvents=1;" parent="D6r4INAEZ-xYz5GNRwte-103" vertex="1"><mxGeometry x="40" width="140" height="30" as="geometry"><mxRectangle width="140" height="30" as="alternateBounds"/></mxGeometry></mxCell><mxCell id="D6r4INAEZ-xYz5GNRwte-108" value="" style="shape=partialRectangle;html=1;whiteSpace=wrap;collapsible=0;dropTarget=0;pointerEvents=1;fillColor=none;top=0;left=0;bottom=0;right=0;points=[[0,0.5],[1,0.5]];portConstraint=eastwest;" parent="D6r4INAEZ-xYz5GNRwte-96" vertex="1"><mxGeometry y="150" width="180" height="30" as="geometry"/></mxCell><mxCell id="D6r4INAEZ-xYz5GNRwte-109" value="4" style="shape=partialRectangle;html=1;whiteSpace=wrap;connectable=0;fillColor=none;top=0;left=0;bottom=0;right=0;overflow=hidden;pointerEvents=1;" parent="D6r4INAEZ-xYz5GNRwte-108" vertex="1"><mxGeometry width="40" height="30" as="geometry"><mxRectangle width="40" height="30" as="alternateBounds"/></mxGeometry></mxCell><mxCell id="D6r4INAEZ-xYz5GNRwte-110" value="x_max" style="shape=partialRectangle;html=1;whiteSpace=wrap;connectable=0;fillColor=none;top=0;left=0;bottom=0;right=0;align=left;spacingLeft=6;overflow=hidden;pointerEvents=1;" parent="D6r4INAEZ-xYz5GNRwte-108" vertex="1"><mxGeometry x="40" width="140" height="30" as="geometry"><mxRectangle width="140" height="30" as="alternateBounds"/></mxGeometry></mxCell><mxCell id="D6r4INAEZ-xYz5GNRwte-112" value="" style="shape=partialRectangle;html=1;whiteSpace=wrap;collapsible=0;dropTarget=0;pointerEvents=1;fillColor=none;top=0;left=0;bottom=0;right=0;points=[[0,0.5],[1,0.5]];portConstraint=eastwest;" parent="D6r4INAEZ-xYz5GNRwte-96" vertex="1"><mxGeometry y="180" width="180" height="30" as="geometry"/></mxCell><mxCell id="D6r4INAEZ-xYz5GNRwte-113" value="5" style="shape=partialRectangle;html=1;whiteSpace=wrap;connectable=0;fillColor=none;top=0;left=0;bottom=0;right=0;overflow=hidden;pointerEvents=1;" parent="D6r4INAEZ-xYz5GNRwte-112" vertex="1"><mxGeometry width="40" height="30" as="geometry"><mxRectangle width="40" height="30" as="alternateBounds"/></mxGeometry></mxCell><mxCell id="D6r4INAEZ-xYz5GNRwte-114" value="x_min" style="shape=partialRectangle;html=1;whiteSpace=wrap;connectable=0;fillColor=none;top=0;left=0;bottom=0;right=0;align=left;spacingLeft=6;overflow=hidden;pointerEvents=1;" parent="D6r4INAEZ-xYz5GNRwte-112" vertex="1"><mxGeometry x="40" width="140" height="30" as="geometry"><mxRectangle width="140" height="30" as="alternateBounds"/></mxGeometry></mxCell><mxCell id="D6r4INAEZ-xYz5GNRwte-115" value="" style="shape=partialRectangle;html=1;whiteSpace=wrap;collapsible=0;dropTarget=0;pointerEvents=1;fillColor=none;top=0;left=0;bottom=0;right=0;points=[[0,0.5],[1,0.5]];portConstraint=eastwest;" parent="D6r4INAEZ-xYz5GNRwte-96" vertex="1"><mxGeometry y="210" width="180" height="30" as="geometry"/></mxCell><mxCell id="D6r4INAEZ-xYz5GNRwte-116" value="6" style="shape=partialRectangle;html=1;whiteSpace=wrap;connectable=0;fillColor=none;top=0;left=0;bottom=0;right=0;overflow=hidden;pointerEvents=1;" parent="D6r4INAEZ-xYz5GNRwte-115" vertex="1"><mxGeometry width="40" height="30" as="geometry"><mxRectangle width="40" height="30" as="alternateBounds"/></mxGeometry></mxCell><mxCell id="D6r4INAEZ-xYz5GNRwte-117" value="Correction" style="shape=partialRectangle;html=1;whiteSpace=wrap;connectable=0;fillColor=none;top=0;left=0;bottom=0;right=0;align=left;spacingLeft=6;overflow=hidden;pointerEvents=1;" parent="D6r4INAEZ-xYz5GNRwte-115" vertex="1"><mxGeometry x="40" width="140" height="30" as="geometry"><mxRectangle width="140" height="30" as="alternateBounds"/></mxGeometry></mxCell><mxCell id="sixpChTMQBd-q2ZNCctw-0" value="Mat_cor_map" style="shape=table;startSize=30;container=1;collapsible=0;childLayout=tableLayout;fixedRows=1;rowLines=0;fontStyle=1;align=center;pointerEvents=1;fillColor=#60a917;strokeColor=#2D7600;fontColor=#ffffff;" parent="WIyWlLk6GJQsqaUBKTNV-1" vertex="1"><mxGeometry x="80" y="250" width="180" height="90" as="geometry"/></mxCell><mxCell id="sixpChTMQBd-q2ZNCctw-1" value="" style="shape=partialRectangle;html=1;whiteSpace=wrap;collapsible=0;dropTarget=0;pointerEvents=1;fillColor=none;top=0;left=0;bottom=1;right=0;points=[[0,0.5],[1,0.5]];portConstraint=eastwest;" parent="sixpChTMQBd-q2ZNCctw-0" vertex="1"><mxGeometry y="30" width="180" height="30" as="geometry"/></mxCell><mxCell id="sixpChTMQBd-q2ZNCctw-2" value="1" style="shape=partialRectangle;html=1;whiteSpace=wrap;connectable=0;fillColor=none;top=0;left=0;bottom=0;right=0;overflow=hidden;pointerEvents=1;" parent="sixpChTMQBd-q2ZNCctw-1" vertex="1"><mxGeometry width="40" height="30" as="geometry"><mxRectangle width="40" height="30" as="alternateBounds"/></mxGeometry></mxCell><mxCell id="sixpChTMQBd-q2ZNCctw-3" value="Material" style="shape=partialRectangle;html=1;whiteSpace=wrap;connectable=0;fillColor=none;top=0;left=0;bottom=0;right=0;align=left;spacingLeft=6;overflow=hidden;pointerEvents=1;" parent="sixpChTMQBd-q2ZNCctw-1" vertex="1"><mxGeometry x="40" width="140" height="30" as="geometry"><mxRectangle width="140" height="30" as="alternateBounds"/></mxGeometry></mxCell><mxCell id="sixpChTMQBd-q2ZNCctw-4" value="" style="shape=partialRectangle;html=1;whiteSpace=wrap;collapsible=0;dropTarget=0;pointerEvents=1;fillColor=none;top=0;left=0;bottom=0;right=0;points=[[0,0.5],[1,0.5]];portConstraint=eastwest;" parent="sixpChTMQBd-q2ZNCctw-0" vertex="1"><mxGeometry y="60" width="180" height="30" as="geometry"/></mxCell><mxCell id="sixpChTMQBd-q2ZNCctw-5" value="2" style="shape=partialRectangle;html=1;whiteSpace=wrap;connectable=0;fillColor=none;top=0;left=0;bottom=0;right=0;overflow=hidden;pointerEvents=1;" parent="sixpChTMQBd-q2ZNCctw-4" vertex="1"><mxGeometry width="40" height="30" as="geometry"><mxRectangle width="40" height="30" as="alternateBounds"/></mxGeometry></mxCell><mxCell id="sixpChTMQBd-q2ZNCctw-6" value="Correction" style="shape=partialRectangle;html=1;whiteSpace=wrap;connectable=0;fillColor=none;top=0;left=0;bottom=0;right=0;align=left;spacingLeft=6;overflow=hidden;pointerEvents=1;" parent="sixpChTMQBd-q2ZNCctw-4" vertex="1"><mxGeometry x="40" width="140" height="30" as="geometry"><mxRectangle width="140" height="30" as="alternateBounds"/></mxGeometry></mxCell><mxCell id="sixpChTMQBd-q2ZNCctw-17" style="edgeStyle=orthogonalEdgeStyle;rounded=0;orthogonalLoop=1;jettySize=auto;html=1;entryX=0;entryY=0.5;entryDx=0;entryDy=0;" parent="WIyWlLk6GJQsqaUBKTNV-1" source="D6r4INAEZ-xYz5GNRwte-115" target="D6r4INAEZ-xYz5GNRwte-70" edge="1"><mxGeometry relative="1" as="geometry"/></mxCell><mxCell id="sixpChTMQBd-q2ZNCctw-18" style="edgeStyle=orthogonalEdgeStyle;rounded=0;orthogonalLoop=1;jettySize=auto;html=1;entryX=0;entryY=0.5;entryDx=0;entryDy=0;" parent="WIyWlLk6GJQsqaUBKTNV-1" source="sixpChTMQBd-q2ZNCctw-4" target="D6r4INAEZ-xYz5GNRwte-149" edge="1"><mxGeometry relative="1" as="geometry"/></mxCell><mxCell id="sixpChTMQBd-q2ZNCctw-19" style="edgeStyle=orthogonalEdgeStyle;rounded=0;orthogonalLoop=1;jettySize=auto;html=1;entryX=0;entryY=0.5;entryDx=0;entryDy=0;" parent="WIyWlLk6GJQsqaUBKTNV-1" source="sixpChTMQBd-q2ZNCctw-1" target="D6r4INAEZ-xYz5GNRwte-36" edge="1"><mxGeometry relative="1" as="geometry"/></mxCell><mxCell id="sixpChTMQBd-q2ZNCctw-20" style="edgeStyle=orthogonalEdgeStyle;rounded=0;orthogonalLoop=1;jettySize=auto;html=1;exitX=1;exitY=0.5;exitDx=0;exitDy=0;entryX=0;entryY=0.5;entryDx=0;entryDy=0;" parent="WIyWlLk6GJQsqaUBKTNV-1" source="D6r4INAEZ-xYz5GNRwte-46" target="D6r4INAEZ-xYz5GNRwte-26" edge="1"><mxGeometry relative="1" as="geometry"/></mxCell><mxCell id="sixpChTMQBd-q2ZNCctw-21" style="edgeStyle=orthogonalEdgeStyle;rounded=0;orthogonalLoop=1;jettySize=auto;html=1;" parent="WIyWlLk6GJQsqaUBKTNV-1" source="D6r4INAEZ-xYz5GNRwte-49" target="D6r4INAEZ-xYz5GNRwte-36" edge="1"><mxGeometry relative="1" as="geometry"/></mxCell><mxCell id="sixpChTMQBd-q2ZNCctw-23" style="edgeStyle=orthogonalEdgeStyle;rounded=0;orthogonalLoop=1;jettySize=auto;html=1;" parent="WIyWlLk6GJQsqaUBKTNV-1" source="D6r4INAEZ-xYz5GNRwte-100" target="D6r4INAEZ-xYz5GNRwte-36" edge="1"><mxGeometry relative="1" as="geometry"/></mxCell><mxCell id="sixpChTMQBd-q2ZNCctw-24" style="edgeStyle=orthogonalEdgeStyle;rounded=0;orthogonalLoop=1;jettySize=auto;html=1;" parent="WIyWlLk6GJQsqaUBKTNV-1" source="D6r4INAEZ-xYz5GNRwte-103" target="D6r4INAEZ-xYz5GNRwte-36" edge="1"><mxGeometry relative="1" as="geometry"/></mxCell><mxCell id="sixpChTMQBd-q2ZNCctw-25" style="edgeStyle=orthogonalEdgeStyle;rounded=0;orthogonalLoop=1;jettySize=auto;html=1;" parent="WIyWlLk6GJQsqaUBKTNV-1" source="D6r4INAEZ-xYz5GNRwte-58" target="D6r4INAEZ-xYz5GNRwte-36" edge="1"><mxGeometry relative="1" as="geometry"/></mxCell><mxCell id="sixpChTMQBd-q2ZNCctw-26" style="edgeStyle=orthogonalEdgeStyle;rounded=0;orthogonalLoop=1;jettySize=auto;html=1;" parent="WIyWlLk6GJQsqaUBKTNV-1" source="D6r4INAEZ-xYz5GNRwte-61" target="D6r4INAEZ-xYz5GNRwte-36" edge="1"><mxGeometry relative="1" as="geometry"/></mxCell><mxCell id="sixpChTMQBd-q2ZNCctw-27" style="edgeStyle=orthogonalEdgeStyle;rounded=0;orthogonalLoop=1;jettySize=auto;html=1;" parent="WIyWlLk6GJQsqaUBKTNV-1" source="D6r4INAEZ-xYz5GNRwte-86" target="D6r4INAEZ-xYz5GNRwte-70" edge="1"><mxGeometry relative="1" as="geometry"/></mxCell><mxCell id="qEjFDWAfDq_gTWfCKQY_-0" value="" style="verticalLabelPosition=bottom;verticalAlign=top;html=1;shape=mxgraph.basic.tick;fillColor=#008a00;strokeColor=#005700;fontColor=#ffffff;" parent="WIyWlLk6GJQsqaUBKTNV-1" vertex="1"><mxGeometry x="370" y="155" width="20" height="20" as="geometry"/></mxCell><mxCell id="qEjFDWAfDq_gTWfCKQY_-2" value="test_add_profile&lt;br&gt;test_remove_profile" style="text;html=1;align=left;verticalAlign=middle;resizable=0;points=[];autosize=1;strokeColor=none;fillColor=none;" parent="WIyWlLk6GJQsqaUBKTNV-1" vertex="1"><mxGeometry x="400" y="150" width="120" height="30" as="geometry"/></mxCell><mxCell id="qEjFDWAfDq_gTWfCKQY_-4" value="" style="verticalLabelPosition=bottom;verticalAlign=top;html=1;shape=mxgraph.basic.tick;fillColor=#008a00;strokeColor=#005700;fontColor=#ffffff;" parent="WIyWlLk6GJQsqaUBKTNV-1" vertex="1"><mxGeometry x="50" y="185" width="20" height="20" as="geometry"/></mxCell><mxCell id="qEjFDWAfDq_gTWfCKQY_-5" value="test_add_material_to_profile&lt;br&gt;test_remove_material_from_profile" style="text;html=1;align=left;verticalAlign=middle;resizable=0;points=[];autosize=1;strokeColor=none;fillColor=none;" parent="WIyWlLk6GJQsqaUBKTNV-1" vertex="1"><mxGeometry x="80" y="180" width="200" height="30" as="geometry"/></mxCell><mxCell id="qEjFDWAfDq_gTWfCKQY_-6" value="" style="verticalLabelPosition=bottom;verticalAlign=top;html=1;shape=mxgraph.basic.tick;fillColor=#008a00;strokeColor=#005700;fontColor=#ffffff;" parent="WIyWlLk6GJQsqaUBKTNV-1" vertex="1"><mxGeometry x="610" y="360" width="20" height="20" as="geometry"/></mxCell><mxCell id="qEjFDWAfDq_gTWfCKQY_-7" value="test_add_tg&lt;br&gt;test_remove_tg" style="text;html=1;align=left;verticalAlign=middle;resizable=0;points=[];autosize=1;strokeColor=none;fillColor=none;" parent="WIyWlLk6GJQsqaUBKTNV-1" vertex="1"><mxGeometry x="640" y="355" width="100" height="30" as="geometry"/></mxCell><mxCell id="qEjFDWAfDq_gTWfCKQY_-8" value="" style="verticalLabelPosition=bottom;verticalAlign=top;html=1;shape=mxgraph.basic.tick;fillColor=#008a00;strokeColor=#005700;fontColor=#ffffff;" parent="WIyWlLk6GJQsqaUBKTNV-1" vertex="1"><mxGeometry x="370" y="405" width="20" height="20" as="geometry"/></mxCell><mxCell id="qEjFDWAfDq_gTWfCKQY_-9" value="test_add_material&lt;br&gt;test_remove_material" style="text;html=1;align=left;verticalAlign=middle;resizable=0;points=[];autosize=1;strokeColor=none;fillColor=none;" parent="WIyWlLk6GJQsqaUBKTNV-1" vertex="1"><mxGeometry x="400" y="400" width="130" height="30" as="geometry"/></mxCell><mxCell id="qEjFDWAfDq_gTWfCKQY_-12" value="" style="verticalLabelPosition=bottom;verticalAlign=top;html=1;shape=mxgraph.basic.tick;fillColor=#008a00;strokeColor=#005700;fontColor=#ffffff;" parent="WIyWlLk6GJQsqaUBKTNV-1" vertex="1"><mxGeometry x="370" y="765" width="20" height="20" as="geometry"/></mxCell><mxCell id="qEjFDWAfDq_gTWfCKQY_-13" value="test_add_correction&lt;br&gt;test_remove_correction" style="text;html=1;align=left;verticalAlign=middle;resizable=0;points=[];autosize=1;strokeColor=none;fillColor=none;" parent="WIyWlLk6GJQsqaUBKTNV-1" vertex="1"><mxGeometry x="400" y="760" width="140" height="30" as="geometry"/></mxCell><mxCell id="qEjFDWAfDq_gTWfCKQY_-15" style="edgeStyle=orthogonalEdgeStyle;rounded=0;orthogonalLoop=1;jettySize=auto;html=1;entryX=1.004;entryY=0.517;entryDx=0;entryDy=0;entryPerimeter=0;exitX=0.32;exitY=0.992;exitDx=0;exitDy=0;exitPerimeter=0;" parent="WIyWlLk6GJQsqaUBKTNV-1" source="qEjFDWAfDq_gTWfCKQY_-14" target="qEjFDWAfDq_gTWfCKQY_-13" edge="1"><mxGeometry relative="1" as="geometry"><mxPoint x="620" y="810" as="targetPoint"/></mxGeometry></mxCell><mxCell id="qEjFDWAfDq_gTWfCKQY_-14" value="" style="verticalLabelPosition=bottom;verticalAlign=top;html=1;shape=mxgraph.basic.tick;fillColor=#008a00;strokeColor=#005700;fontColor=#ffffff;" parent="WIyWlLk6GJQsqaUBKTNV-1" vertex="1"><mxGeometry x="610" y="705" width="20" height="20" as="geometry"/></mxCell><mxCell id="qEjFDWAfDq_gTWfCKQY_-16" value="" style="verticalLabelPosition=bottom;verticalAlign=top;html=1;shape=mxgraph.basic.x;strokeColor=#6F0000;fillColor=#a20025;fontColor=#ffffff;" parent="WIyWlLk6GJQsqaUBKTNV-1" vertex="1"><mxGeometry x="90" y="660" width="20" height="20" as="geometry"/></mxCell><mxCell id="qEjFDWAfDq_gTWfCKQY_-17" value="" style="verticalLabelPosition=bottom;verticalAlign=top;html=1;shape=mxgraph.basic.x;strokeColor=#6F0000;fillColor=#a20025;fontColor=#ffffff;" parent="WIyWlLk6GJQsqaUBKTNV-1" vertex="1"><mxGeometry x="90" y="350" width="20" height="20" as="geometry"/></mxCell><mxCell id="qEjFDWAfDq_gTWfCKQY_-19" value="" style="verticalLabelPosition=bottom;verticalAlign=top;html=1;shape=mxgraph.basic.x;strokeColor=#6F0000;fillColor=#a20025;fontColor=#ffffff;" parent="WIyWlLk6GJQsqaUBKTNV-1" vertex="1"><mxGeometry x="370" y="190" width="20" height="20" as="geometry"/></mxCell><mxCell id="qEjFDWAfDq_gTWfCKQY_-21" value="Проверка удаления всех &lt;br&gt;данных, связанных с профилем" style="text;html=1;align=left;verticalAlign=middle;resizable=0;points=[];autosize=1;strokeColor=none;fillColor=none;" parent="WIyWlLk6GJQsqaUBKTNV-1" vertex="1"><mxGeometry x="400" y="185" width="190" height="30" as="geometry"/></mxCell><mxCell id="qEjFDWAfDq_gTWfCKQY_-22" value="" style="verticalLabelPosition=bottom;verticalAlign=top;html=1;shape=mxgraph.basic.x;strokeColor=#6F0000;fillColor=#a20025;fontColor=#ffffff;" parent="WIyWlLk6GJQsqaUBKTNV-1" vertex="1"><mxGeometry x="370" y="445" width="20" height="20" as="geometry"/></mxCell><mxCell id="qEjFDWAfDq_gTWfCKQY_-23" value="Проверка удаления всех &lt;br&gt;данных, связанных с материалом" style="text;html=1;align=left;verticalAlign=middle;resizable=0;points=[];autosize=1;strokeColor=none;fillColor=none;" parent="WIyWlLk6GJQsqaUBKTNV-1" vertex="1"><mxGeometry x="400" y="440" width="200" height="30" as="geometry"/></mxCell><mxCell id="qEjFDWAfDq_gTWfCKQY_-24" value="" style="verticalLabelPosition=bottom;verticalAlign=top;html=1;shape=mxgraph.basic.x;strokeColor=#6F0000;fillColor=#a20025;fontColor=#ffffff;" parent="WIyWlLk6GJQsqaUBKTNV-1" vertex="1"><mxGeometry x="370" y="805" width="20" height="20" as="geometry"/></mxCell><mxCell id="qEjFDWAfDq_gTWfCKQY_-25" value="Проверка удаления всех &lt;br&gt;данных, связанных с коррекцией" style="text;html=1;align=left;verticalAlign=middle;resizable=0;points=[];autosize=1;strokeColor=none;fillColor=none;" parent="WIyWlLk6GJQsqaUBKTNV-1" vertex="1"><mxGeometry x="400" y="800" width="200" height="30" as="geometry"/></mxCell><mxCell id="qEjFDWAfDq_gTWfCKQY_-26" value="&lt;div&gt;&lt;span&gt;Реализовать ORMDataBase&lt;/span&gt;&lt;/div&gt;&lt;div&gt;&lt;span&gt;Добавление / удаление&lt;/span&gt;&lt;/div&gt;" style="text;html=1;align=left;verticalAlign=middle;resizable=0;points=[];autosize=1;strokeColor=none;fillColor=none;" parent="WIyWlLk6GJQsqaUBKTNV-1" vertex="1"><mxGeometry x="120" y="345" width="170" height="30" as="geometry"/></mxCell><mxCell id="qEjFDWAfDq_gTWfCKQY_-27" value="&lt;div&gt;Реализовать ORMDataBase&lt;/div&gt;&lt;div&gt;Добавление / удаление&lt;/div&gt;" style="text;html=1;align=left;verticalAlign=middle;resizable=0;points=[];autosize=1;strokeColor=none;fillColor=none;" parent="WIyWlLk6GJQsqaUBKTNV-1" vertex="1"><mxGeometry x="120" y="655" width="170" height="30" as="geometry"/></mxCell><mxCell id="qEjFDWAfDq_gTWfCKQY_-28" value="" style="verticalLabelPosition=bottom;verticalAlign=top;html=1;shape=mxgraph.basic.x;strokeColor=#6F0000;fillColor=#a20025;fontColor=#ffffff;" parent="WIyWlLk6GJQsqaUBKTNV-1" vertex="1"><mxGeometry x="370" y="480" width="20" height="20" as="geometry"/></mxCell><mxCell id="qEjFDWAfDq_gTWfCKQY_-29" value="Редактирование" style="text;html=1;align=left;verticalAlign=middle;resizable=0;points=[];autosize=1;strokeColor=none;fillColor=none;" parent="WIyWlLk6GJQsqaUBKTNV-1" vertex="1"><mxGeometry x="400" y="480" width="110" height="20" as="geometry"/></mxCell><mxCell id="qEjFDWAfDq_gTWfCKQY_-30" value="" style="verticalLabelPosition=bottom;verticalAlign=top;html=1;shape=mxgraph.basic.x;strokeColor=#6F0000;fillColor=#a20025;fontColor=#ffffff;" parent="WIyWlLk6GJQsqaUBKTNV-1" vertex="1"><mxGeometry x="370" y="847" width="20" height="20" as="geometry"/></mxCell><mxCell id="qEjFDWAfDq_gTWfCKQY_-31" value="Редактирование" style="text;html=1;align=left;verticalAlign=middle;resizable=0;points=[];autosize=1;strokeColor=none;fillColor=none;" parent="WIyWlLk6GJQsqaUBKTNV-1" vertex="1"><mxGeometry x="400" y="847" width="110" height="20" as="geometry"/></mxCell></root></mxGraphModel></diagram></mxfile>